<svg width="176" height="189" viewBox="0 0 176 189" fill="none" xmlns="http://www.w3.org/2000/svg">
<g filter="url(#filter0_bd_2_755)">
<path d="M75.4957 14.2193C83.2334 9.752 92.7666 9.752 100.504 14.2193L142.18 38.2807C149.917 42.748 154.684 51.004 154.684 59.9387V108.061C154.684 116.996 149.917 125.252 142.18 129.719L100.504 153.781C92.7666 158.248 83.2334 158.248 75.4957 153.781L33.8203 129.719C26.0826 125.252 21.316 116.996 21.316 108.061V59.9387C21.316 51.004 26.0827 42.748 33.8203 38.2807L75.4957 14.2193Z" fill="url(#paint0_linear_2_755)" shape-rendering="crispEdges"/>
<path d="M76.4829 15.9292C83.6097 11.8145 92.3903 11.8145 99.5171 15.9292L141.193 39.9905C148.319 44.1052 152.71 51.7094 152.71 59.9387V108.061C152.71 116.291 148.319 123.895 141.193 128.009L99.5171 152.071C92.3903 156.185 83.6097 156.185 76.4829 152.071L34.8075 128.009C27.6807 123.895 23.2904 116.291 23.2904 108.061V59.9387C23.2904 51.7094 27.6807 44.1052 34.8075 39.9905L76.4829 15.9292Z" stroke="#FFFFEA" stroke-opacity="0.67" stroke-width="3.94872" shape-rendering="crispEdges"/>
</g>
<path d="M53.4875 78.8245V81.5728H60.4373V86.8483H53.4875V90.0072H61.385V95.5986H46.4746V73.2331H61.385V78.8245H53.4875ZM76.19 77.6557C78.2328 77.6557 79.8228 78.3401 80.96 79.709C82.1183 81.0779 82.6974 82.9311 82.6974 85.2688V95.5986H75.7161V86.1533C75.7161 85.3109 75.4844 84.6475 75.0211 84.1631C74.5789 83.6577 73.9787 83.405 73.2205 83.405C72.4413 83.405 71.8306 83.6577 71.3883 84.1631C70.9461 84.6475 70.7249 85.3109 70.7249 86.1533V95.5986H63.712V77.782H70.7249V80.4987C71.2725 79.6563 71.999 78.9719 72.9046 78.4454C73.8313 77.9189 74.9264 77.6557 76.19 77.6557ZM96.5105 89.6282V95.5986H93.857C88.9711 95.5986 86.5282 93.1662 86.5282 88.3014V83.6261H84.3169V77.782H86.5282V73.4858H93.5411V77.782H96.4474V83.6261H93.5411V88.4278C93.5411 88.849 93.6359 89.1543 93.8254 89.3439C94.036 89.5334 94.373 89.6282 94.8363 89.6282H96.5105ZM116.113 86.5324C116.113 87.0168 116.082 87.4801 116.019 87.9223H104.741C104.846 89.4597 105.489 90.2284 106.668 90.2284C107.426 90.2284 107.974 89.8809 108.311 89.1859H115.734C115.482 90.4495 114.945 91.5867 114.123 92.5976C113.323 93.5874 112.302 94.3772 111.059 94.9668C109.838 95.5355 108.49 95.8198 107.016 95.8198C105.247 95.8198 103.667 95.4512 102.277 94.7141C100.908 93.977 99.8342 92.924 99.055 91.5551C98.2968 90.1652 97.9178 88.5436 97.9178 86.6903C97.9178 84.8371 98.2968 83.226 99.055 81.8571C99.8342 80.4671 100.908 79.4036 102.277 78.6665C103.667 77.9294 105.247 77.5609 107.016 77.5609C108.785 77.5609 110.354 77.9294 111.722 78.6665C113.112 79.3826 114.186 80.4145 114.945 81.7623C115.724 83.1102 116.113 84.7002 116.113 86.5324ZM109.006 84.8581C109.006 84.2684 108.816 83.8262 108.437 83.5313C108.058 83.2155 107.584 83.0575 107.016 83.0575C105.773 83.0575 105.047 83.6577 104.836 84.8581H109.006ZM125.028 81.0674C125.744 80.0354 126.618 79.2141 127.65 78.6033C128.682 77.9716 129.756 77.6557 130.873 77.6557V85.1424H128.882C127.556 85.1424 126.576 85.3741 125.945 85.8374C125.334 86.3007 125.028 87.1221 125.028 88.3014V95.5986H118.016V77.782H125.028V81.0674Z" fill="#FFFFEA"/>
<defs>
<filter id="filter0_bd_2_755" x="0.256332" y="0.339226" width="175.488" height="188.381" filterUnits="userSpaceOnUse" color-interpolation-filters="sRGB">
<feFlood flood-opacity="0" result="BackgroundImageFix"/>
<feGaussianBlur in="BackgroundImageFix" stdDeviation="5.26496"/>
<feComposite in2="SourceAlpha" operator="in" result="effect1_backgroundBlur_2_755"/>
<feColorMatrix in="SourceAlpha" type="matrix" values="0 0 0 0 0 0 0 0 0 0 0 0 0 0 0 0 0 0 127 0" result="hardAlpha"/>
<feOffset dy="10.5299"/>
<feGaussianBlur stdDeviation="10.5299"/>
<feComposite in2="hardAlpha" operator="out"/>
<feColorMatrix type="matrix" values="0 0 0 0 0.898039 0 0 0 0 0.294118 0 0 0 0 0.188235 0 0 0 0.34 0"/>
<feBlend mode="normal" in2="effect1_backgroundBlur_2_755" result="effect2_dropShadow_2_755"/>
<feBlend mode="normal" in="SourceGraphic" in2="effect2_dropShadow_2_755" result="shape"/>
</filter>
<linearGradient id="paint0_linear_2_755" x1="28.7692" y1="-0.239318" x2="141.308" y2="173.504" gradientUnits="userSpaceOnUse">
<stop stop-color="#FC2020" stop-opacity="0.72"/>
<stop offset="1" stop-color="#FC2020" stop-opacity="0.73"/>
</linearGradient>
</defs>
</svg>
